<svg width="16" height="16" viewBox="0 0 16 16" fill="none" xmlns="http://www.w3.org/2000/svg">
<path d="M11.3535 10.6462C11.4 10.6926 11.4369 10.7477 11.4621 10.8084C11.4872 10.8691 11.5002 10.9342 11.5002 10.9999C11.5002 11.0656 11.4872 11.1307 11.4621 11.1914C11.4369 11.2521 11.4 11.3072 11.3535 11.3537L8.35354 14.3537C8.3071 14.4001 8.25196 14.437 8.19126 14.4622C8.13056 14.4873 8.0655 14.5003 7.99979 14.5003C7.93408 14.5003 7.86902 14.4873 7.80832 14.4622C7.74762 14.437 7.69248 14.4001 7.64604 14.3537L4.64604 11.3537C4.55222 11.2598 4.49951 11.1326 4.49951 10.9999C4.49951 10.8672 4.55222 10.74 4.64604 10.6462C4.73986 10.5523 4.86711 10.4996 4.99979 10.4996C5.13247 10.4996 5.25972 10.5523 5.35354 10.6462L7.99979 13.293L10.646 10.6462C10.6925 10.5997 10.7476 10.5628 10.8083 10.5376C10.869 10.5125 10.9341 10.4995 10.9998 10.4995C11.0655 10.4995 11.1306 10.5125 11.1913 10.5376C11.252 10.5628 11.3071 10.5997 11.3535 10.6462ZM5.35354 5.35366L7.99979 2.70678L10.646 5.35366C10.7399 5.44748 10.8671 5.50018 10.9998 5.50018C11.1325 5.50018 11.2597 5.44748 11.3535 5.35366C11.4474 5.25984 11.5001 5.13259 11.5001 4.99991C11.5001 4.86722 11.4474 4.73998 11.3535 4.64615L8.35354 1.64615C8.3071 1.59967 8.25196 1.56279 8.19126 1.53763C8.13056 1.51246 8.0655 1.49951 7.99979 1.49951C7.93408 1.49951 7.86902 1.51246 7.80832 1.53763C7.74762 1.56279 7.69248 1.59967 7.64604 1.64615L4.64604 4.64615C4.55222 4.73998 4.49951 4.86722 4.49951 4.99991C4.49951 5.13259 4.55222 5.25983 4.64604 5.35365C4.73986 5.44748 4.86711 5.50018 4.99979 5.50018C5.13247 5.50018 5.25972 5.44748 5.35354 5.35366Z" fill="black"/>
</svg>
